<mxfile host="app.diagrams.net" modified="2023-12-03T09:03:28.156Z" agent="Mozilla/5.0 (Windows NT 10.0; Win64; x64) AppleWebKit/537.36 (KHTML, like Gecko) Chrome/119.0.0.0 Safari/537.36" etag="sAdFbpC1ebzvLwenFam_" version="22.1.5" type="github">
  <diagram id="C5RBs43oDa-KdzZeNtuy" name="Page-1">
    <mxGraphModel dx="1034" dy="458" grid="1" gridSize="10" guides="1" tooltips="1" connect="1" arrows="1" fold="1" page="1" pageScale="1" pageWidth="827" pageHeight="1169" math="0" shadow="0">
      <root>
        <mxCell id="WIyWlLk6GJQsqaUBKTNV-0" />
        <mxCell id="WIyWlLk6GJQsqaUBKTNV-1" parent="WIyWlLk6GJQsqaUBKTNV-0" />
        <mxCell id="Yc5TvGUUKBZxpQjDAxng-10" style="edgeStyle=orthogonalEdgeStyle;rounded=0;orthogonalLoop=1;jettySize=auto;html=1;exitX=0.5;exitY=1;exitDx=0;exitDy=0;entryX=0.5;entryY=0;entryDx=0;entryDy=0;" edge="1" parent="WIyWlLk6GJQsqaUBKTNV-1" source="WIyWlLk6GJQsqaUBKTNV-3" target="Yc5TvGUUKBZxpQjDAxng-1">
          <mxGeometry relative="1" as="geometry" />
        </mxCell>
        <mxCell id="WIyWlLk6GJQsqaUBKTNV-3" value="Read in the data&lt;br&gt;(spark.read.csv)" style="rounded=1;whiteSpace=wrap;html=1;fontSize=12;glass=0;strokeWidth=1;shadow=0;" parent="WIyWlLk6GJQsqaUBKTNV-1" vertex="1">
          <mxGeometry x="349" y="70" width="120" height="40" as="geometry" />
        </mxCell>
        <mxCell id="Yc5TvGUUKBZxpQjDAxng-0" value="Pipeline to transform the data" style="text;html=1;strokeColor=none;fillColor=none;align=center;verticalAlign=middle;whiteSpace=wrap;rounded=0;" vertex="1" parent="WIyWlLk6GJQsqaUBKTNV-1">
          <mxGeometry x="319" y="30" width="190" height="30" as="geometry" />
        </mxCell>
        <mxCell id="Yc5TvGUUKBZxpQjDAxng-12" style="edgeStyle=orthogonalEdgeStyle;rounded=0;orthogonalLoop=1;jettySize=auto;html=1;exitX=0.5;exitY=1;exitDx=0;exitDy=0;entryX=0.5;entryY=0;entryDx=0;entryDy=0;" edge="1" parent="WIyWlLk6GJQsqaUBKTNV-1" source="Yc5TvGUUKBZxpQjDAxng-1" target="Yc5TvGUUKBZxpQjDAxng-11">
          <mxGeometry relative="1" as="geometry" />
        </mxCell>
        <mxCell id="Yc5TvGUUKBZxpQjDAxng-1" value="Split the Text String into words&lt;br&gt;(RegexTokenizer, pattern = &quot;\\W&quot;)" style="rounded=1;whiteSpace=wrap;html=1;" vertex="1" parent="WIyWlLk6GJQsqaUBKTNV-1">
          <mxGeometry x="309" y="140" width="200" height="50" as="geometry" />
        </mxCell>
        <mxCell id="Yc5TvGUUKBZxpQjDAxng-14" style="edgeStyle=orthogonalEdgeStyle;rounded=0;orthogonalLoop=1;jettySize=auto;html=1;exitX=0.5;exitY=1;exitDx=0;exitDy=0;entryX=0.5;entryY=0;entryDx=0;entryDy=0;" edge="1" parent="WIyWlLk6GJQsqaUBKTNV-1" source="Yc5TvGUUKBZxpQjDAxng-11" target="Yc5TvGUUKBZxpQjDAxng-15">
          <mxGeometry relative="1" as="geometry">
            <mxPoint x="409" y="320" as="targetPoint" />
          </mxGeometry>
        </mxCell>
        <mxCell id="Yc5TvGUUKBZxpQjDAxng-11" value="Remove StopWords&lt;br&gt;(StopWordsRemover)" style="rounded=1;whiteSpace=wrap;html=1;" vertex="1" parent="WIyWlLk6GJQsqaUBKTNV-1">
          <mxGeometry x="349" y="220" width="120" height="40" as="geometry" />
        </mxCell>
        <mxCell id="Yc5TvGUUKBZxpQjDAxng-17" style="edgeStyle=orthogonalEdgeStyle;rounded=0;orthogonalLoop=1;jettySize=auto;html=1;exitX=0.5;exitY=1;exitDx=0;exitDy=0;entryX=0.5;entryY=0;entryDx=0;entryDy=0;" edge="1" parent="WIyWlLk6GJQsqaUBKTNV-1" source="Yc5TvGUUKBZxpQjDAxng-15" target="Yc5TvGUUKBZxpQjDAxng-16">
          <mxGeometry relative="1" as="geometry" />
        </mxCell>
        <mxCell id="Yc5TvGUUKBZxpQjDAxng-15" value="Convert the leftover words in the tweets to numerical values&lt;br&gt;(HashingTF)" style="rounded=1;whiteSpace=wrap;html=1;" vertex="1" parent="WIyWlLk6GJQsqaUBKTNV-1">
          <mxGeometry x="244.5" y="290" width="329" height="60" as="geometry" />
        </mxCell>
        <mxCell id="Yc5TvGUUKBZxpQjDAxng-16" value="Run the pipeline" style="rounded=1;whiteSpace=wrap;html=1;" vertex="1" parent="WIyWlLk6GJQsqaUBKTNV-1">
          <mxGeometry x="349" y="380" width="120" height="40" as="geometry" />
        </mxCell>
      </root>
    </mxGraphModel>
  </diagram>
</mxfile>
